<?xml version="1.0" standalone="no"?>
<!DOCTYPE svg PUBLIC "-//W3C//DTD SVG 20010904//EN"
 "http://www.w3.org/TR/2001/REC-SVG-20010904/DTD/svg10.dtd">
<svg version="1.0" xmlns="http://www.w3.org/2000/svg"
 width="900.000000pt" height="900.000000pt" viewBox="0 0 900.000000 900.000000"
 preserveAspectRatio="xMidYMid meet">
<metadata>
Created by potrace 1.11, written by Peter Selinger 2001-2013
</metadata>
<g transform="translate(0.000000,900.000000) scale(0.100000,-0.100000)"
fill="#000000" stroke="none">
<path d="M1395 7555 c-605 -242 -1120 -451 -1145 -464 -63 -33 -160 -136 -193
-204 -60 -124 -57 54 -57 -2928 0 -3046 -6 -2799 67 -2874 54 -56 108 -79 183
-79 65 -1 71 2 1150 493 597 272 1088 497 1093 500 4 4 6 1355 5 3002 l-3
2995 -1100 -441z"/>
<path d="M3000 5000 l0 -2998 1500 -500 1500 -500 0 2998 0 2998 -1500 500
-1500 500 0 -2998z m1827 1079 c38 -24 73 -84 73 -126 0 -15 -59 -208 -130
-427 -72 -220 -130 -403 -130 -407 0 -5 168 -9 373 -11 340 -3 375 -5 402 -21
53 -32 70 -65 70 -132 l0 -60 -549 -955 c-302 -525 -564 -970 -582 -989 -29
-30 -41 -35 -91 -39 -49 -3 -64 0 -92 20 -40 27 -71 81 -71 123 1 16 65 302
144 635 l142 605 -385 5 c-363 5 -388 6 -420 25 -42 25 -71 78 -71 130 0 22
45 380 100 795 108 815 101 780 170 828 l33 22 490 0 c480 0 490 0 524 -21z"/>
<path d="M8665 7981 c-54 -21 -2154 -977 -2161 -984 -2 -2 -3 -1352 -2 -2999
l3 -2996 1108 443 c609 244 1130 458 1157 475 103 66 179 174 210 297 20 75
20 128 20 2818 0 3037 5 2806 -65 2878 -76 78 -178 104 -270 68z"/>
</g>
</svg>
